<svg xmlns="http://www.w3.org/2000/svg" height="48" viewBox="0 -960 960 960" width="48"><path d="m655.5-537.5-97 97 34.5 34 40.5-40.5q-7.02 72.073-49.648 117.536Q541.224-284 480.046-284q-17.046 0-29.296-2.25t-23.464-7.25L391.5-259q20.33 12.538 41.58 18.019 21.25 5.481 46.717 5.481 84.255 0 140.229-58.75Q676-353 681-445.5l38.5 39 34.5-34-98.5-97ZM306.5-336l97-97-34.5-34-40.5 40.5q7.02-72.073 49.648-117.536Q420.776-589.5 481.954-589.5q17.046 0 29.296 2.25t23.464 7.25l35.786-34.5q-20.33-12.538-41.58-18.019Q507.67-638 482.203-638q-84.255 0-140.229 58.75Q286-520.5 281-428l-38.5-39-34.5 34 98.5 97Zm-164 211.5q-22.969 0-40.234-17.266Q85-159.031 85-182v-509.5q0-21.969 17.266-39.734Q119.531-749 142.5-749h147l72.057-86.5H598.5l72 86.5h147q21.969 0 39.734 17.766Q875-713.469 875-691.5V-182q0 22.969-17.766 40.234Q839.469-124.5 817.5-124.5h-675Zm675-57.5v-509.5H644L571.5-778H388.451L316.5-691.5h-174V-182h675ZM480-480Z"/></svg>