<svg xmlns="http://www.w3.org/2000/svg" width="19.502" height="24.001" viewBox="0 0 19.502 24.001">
  <g id="Group_61" data-name="Group 61" transform="translate(-400.677 -478.383)">
    <path id="Path_7" data-name="Path 7" d="M405.272,478.383h13.312a.22.22,0,0,0,.059.034,1.87,1.87,0,0,1,1.534,1.957q0,1.149,0,2.3,0,7.37,0,14.739a1.814,1.814,0,0,1-.85,1.648.474.474,0,0,0-.277.534.491.491,0,0,1,0,.094,2.624,2.624,0,0,1-2.693,2.7q-6.492,0-12.982,0a2.965,2.965,0,0,1-.672-.074,2.605,2.605,0,0,1-2.026-2.592q-.006-3.96,0-7.92,0-4.605,0-9.209a2.61,2.61,0,0,1,2.314-2.678,5,5,0,0,1,.714-.005,1.847,1.847,0,0,1,.877-1.239A5.534,5.534,0,0,1,405.272,478.383Zm-.094,10.5v8.461c0,.43.109.539.539.539h12.421c.43,0,.539-.11.539-.54V480.422c0-.43-.109-.539-.539-.539H405.717c-.431,0-.539.109-.539.54Zm-1.5-7.481a1.232,1.232,0,0,0-1.512,1.336c.023,5.63.012,11.261.012,16.892a1.136,1.136,0,0,0,1.246,1.252q6.442,0,12.885,0a1.169,1.169,0,0,0,1.213-1.5h-11.8a2.674,2.674,0,0,1-.42-.019,1.876,1.876,0,0,1-1.624-1.95q0-7.85,0-15.7Z"/>
    <path id="Path_8" data-name="Path 8" d="M411.937,483.634c-1.492,0-2.984,0-4.476,0a.75.75,0,1,1,.016-1.5q1.208,0,2.414,0,3.232,0,6.467,0a.755.755,0,0,1,.768,1.02.763.763,0,0,1-.76.478Q414.152,483.636,411.937,483.634Z"/>
    <path id="Path_9" data-name="Path 9" d="M411.741,485.884q2.131,0,4.264,0a.752.752,0,1,1-.011,1.5q-2.167,0-4.335,0c-1.4,0-2.8,0-4.2,0a.751.751,0,1,1,.035-1.5Q409.62,485.887,411.741,485.884Z"/>
    <path id="Path_10" data-name="Path 10" d="M409.674,488.884q1.09,0,2.179,0a.752.752,0,1,1,.012,1.5q-2.19,0-4.381,0a.752.752,0,1,1,.011-1.5Q408.585,488.882,409.674,488.884Z"/>
  </g>
</svg>
